<?xml version="1.0" encoding="UTF-8"?>
<svg width="22px" height="14px" viewBox="0 0 22 14" version="1.1" xmlns="http://www.w3.org/2000/svg" xmlns:xlink="http://www.w3.org/1999/xlink">
    <!-- Generator: Sketch 46.2 (44496) - http://www.bohemiancoding.com/sketch -->
    <title>iconAllyDownload-IC-White</title>
    <desc>Created with Sketch.</desc>
    <defs></defs>
    <g id="Symbols" stroke="none" stroke-width="1" fill="none" fill-rule="evenodd">
        <g id="modalAAF-ICv01-option02" transform="translate(-498.000000, -469.000000)" fill="#FFFFFF">
            <g id="footer">
                <g transform="translate(0.000000, 438.000000)">
                    <g id="btn1st-browse" transform="translate(483.000000, 17.000000)">
                        <g id="cloud-download" transform="translate(15.000000, 14.000000)">
                            <g id="iconAllyDownload-IC-White">
                                <g id="iconAllyDownload-IC">
                                    <path d="M22,4.5375 L17.1875,12.1 L12.375,4.5375 L15.2625,4.5375 L15.2625,0 L19.1125,0 L19.1125,4.5375 L22,4.5375 Z M0,13.4444444 L7.56170223,2.68888889 L15.125,13.4444444 L11.5074634,13.4444444 C10.8377941,12.0353074 9.34323244,11.0540329 7.60683311,11.0540329 C5.87043379,11.0540329 4.37564424,12.0353074 3.70597488,13.4444444 L0,13.4444444 Z M5.76079766,8.49334066 C5.76079766,9.43615079 6.56722727,10.2004688 7.56170223,10.2004688 C8.55617719,10.2004688 9.36237887,9.43615079 9.36237887,8.49334066 C9.36237887,7.55053052 8.55617719,6.78621252 7.56170223,6.78621252 C6.56722727,6.78621252 5.76079766,7.55053052 5.76079766,8.49334066 Z"></path>
                                </g>
                            </g>
                        </g>
                    </g>
                </g>
            </g>
        </g>
    </g>
</svg>